<svg id="Ebene_1" data-name="Ebene 1" xmlns="http://www.w3.org/2000/svg" viewBox="0 0 283.46 283.46"><title>principles</title><path d="M119.22,166a37.19,37.19,0,1,1,45,0" fill="none" stroke="#fff" stroke-linecap="round" stroke-miterlimit="10" stroke-width="20"/><path d="M226.75,56.71c0,141.53-85,170-85,170s-85-28.51-85-170h0S84.55,69,99.22,69s42.51-12.31,42.51-12.31S169.57,69,184.24,69s42.51-12.31,42.51-12.31m0-12.5a12.59,12.59,0,0,0-5.05,1.07h0c-9.85,4.35-28.72,11.24-37.46,11.24-8.3,0-26.9-6.57-37.45-11.24a12.48,12.48,0,0,0-10.11,0C126.84,49.63,108,56.52,99.22,56.52c-8.3,0-26.89-6.57-37.45-11.24A12.5,12.5,0,0,0,44.21,56.71c0,33.71,4.71,64.13,14,90.44,7.57,21.43,18.17,40.2,31.52,55.79,23.23,27.12,47,35.33,48,35.66a12.48,12.48,0,0,0,8,0c1-.33,24.79-8.53,48-35.66,13.34-15.59,23.95-34.36,31.51-55.79,9.29-26.3,14-56.73,14-90.44a12.51,12.51,0,0,0-12.5-12.5Z" fill="#fff"/></svg>